<?xml version="1.0" encoding="UTF-8"?>
<svg width="105px" height="83px" viewBox="0 0 105 83" version="1.1" xmlns="http://www.w3.org/2000/svg" xmlns:xlink="http://www.w3.org/1999/xlink">
    <!-- Generator: Sketch 50 (54983) - http://www.bohemiancoding.com/sketch -->
    <title>Group</title>
    <desc>Created with Sketch.</desc>
    <defs></defs>
    <g id="Page-1" stroke="none" stroke-width="1" fill="none" fill-rule="evenodd">
        <g id="Logo-mark_Variations" transform="translate(-89.000000, -399.000000)" fill="#DE2127">
            <g id="Group-43" transform="translate(89.000000, 96.280000)">
                <g id="Group" transform="translate(0.000000, 303.000000)">
                    <path d="M70.7964,60.9641 L86.4104,60.9641 C88.0464,60.9641 89.5174,61.8721 90.2484,63.3361 L97.5634,77.9661 L81.9494,77.9661 C80.3124,77.9661 78.8424,77.0581 78.1114,75.5941 L70.7964,60.9641 Z M93.4934,60.2311 C92.3974,58.0361 90.1904,56.6731 87.7374,56.6731 L63.8524,56.6731 L74.8664,78.6991 C75.9634,80.8941 78.1684,82.2571 80.6224,82.2571 L104.5074,82.2571 L93.4934,60.2311 Z" id="Fill-11"></path>
                    <path d="M62.5566,4.7454 L72.0036,23.7464 C72.6006,24.9454 72.5986,26.3774 71.9996,27.5764 L63.8246,43.9264 L44.2886,4.7454 L62.5566,4.7454 Z M76.3226,22.7924 L65.2136,0.4544 L37.3536,0.4544 L63.8206,53.5304 L76.3156,28.5374 C77.2146,26.7404 77.2166,24.5924 76.3226,22.7924 Z" id="Fill-13"></path>
                    <path d="M49.2124,39.0901 C48.1154,36.8961 45.9094,35.5311 43.4554,35.5311 L21.4934,35.5311 L31.4344,55.4131 L36.2324,55.4131 L28.4374,39.8221 L42.1294,39.8221 C43.7644,39.8221 45.2354,40.7321 45.9664,42.1951 L53.2054,56.6731 L45.3988657,56.6731 L32.0644,56.6731 L34.2094,60.9641 L60.1494,60.9641 L49.2124,39.0901 Z" id="Fill-15"></path>
                    <path d="M36.8618,60.9641 L39.0078,56.6731 L13.0678,56.6731 L0.3508,82.1071 L22.3138,82.1071 C24.7678,82.1071 26.9738,80.7431 28.0698,78.5481 L36.2328,62.2251 L31.4348,62.2251 L24.8248,75.4431 C24.0938,76.9061 22.6228,77.8161 20.9878,77.8161 L7.2948,77.8161 L15.7198,60.9641 L36.8618,60.9641 Z" id="Fill-17"></path>
                </g>
            </g>
        </g>
    </g>
</svg>