<?xml version="1.0" encoding="UTF-8"?>
<svg width="50px" height="39px" viewBox="0 0 50 39" version="1.1" xmlns="http://www.w3.org/2000/svg" xmlns:xlink="http://www.w3.org/1999/xlink">
    <!-- Generator: Sketch 50 (54983) - http://www.bohemiancoding.com/sketch -->
    <title>5F</title>
    <desc>Created with Sketch.</desc>
    <defs></defs>
    <g id="Page-1" stroke="none" stroke-width="1" fill="none" fill-rule="evenodd">
        <path d="M17.441,3.41 C20.715,3.41 23.378,6.07 23.378,9.34 C23.378,12.62 20.715,15.28 17.441,15.28 C14.167,15.28 11.503,12.62 11.503,9.34 C11.503,6.07 14.167,3.41 17.441,3.41 Z M17.441,18.28 C22.369,18.28 26.378,14.27 26.378,9.34 C26.378,4.42 22.369,0.41 17.441,0.41 C12.513,0.41 8.503,4.42 8.503,9.34 C8.503,14.27 12.513,18.28 17.441,18.28 Z M35.699,3.9 C38.06,3.9 39.98,5.82 39.98,8.18 C39.98,10.54 38.06,12.46 35.699,12.46 C33.339,12.46 31.419,10.54 31.419,8.18 C31.419,5.82 33.339,3.9 35.699,3.9 Z M35.699,15.46 C39.714,15.46 42.98,12.2 42.98,8.18 C42.98,4.17 39.714,0.9 35.699,0.9 C31.685,0.9 28.419,4.17 28.419,8.18 C28.419,12.2 31.685,15.46 35.699,15.46 Z M46.375,28.54 L34.607,28.54 L34.607,28.48 C34.607,24.41 31.812,20.1 26.629,20.1 C26.556,20.1 26.474,20.1 26.397,20.1 C26.917,19.61 27.589,19.26 28.414,19.26 C28.983,19.26 30.737,19.25 32.884,19.24 C36.261,19.22 40.612,19.2 42.841,19.2 C45.637,19.2 46.375,21.72 46.375,23.05 L46.375,28.54 Z M31.607,35.97 L3.274,35.97 L3.274,29.01 C3.274,27.26 3.963,25.53 5.117,24.4 C5.707,23.82 6.708,23.1 8.066,23.17 C8.818,23.15 11.198,23.16 14.08,23.14 C18.386,23.12 23.819,23.1 26.629,23.1 C30.05,23.1 31.607,25.89 31.607,28.48 L31.607,35.97 Z M42.841,16.2 C40.609,16.2 36.251,16.22 32.869,16.24 C30.729,16.25 28.981,16.26 28.443,16.26 C28.406,16.26 28.369,16.26 28.333,16.26 C25.979,16.26 23.881,17.74 22.783,20.1 C20.075,20.11 16.838,20.13 14.065,20.14 C11.205,20.16 8.842,20.17 8.106,20.17 C8.103,20.17 8.1,20.17 8.097,20.17 C6.222,20.11 4.431,20.87 3.017,22.26 C1.299,23.94 0.274,26.47 0.274,29.01 L0.274,37.47 C0.274,38.3 0.945,38.97 1.774,38.97 L33.107,38.97 C33.936,38.97 34.607,38.3 34.607,37.47 L34.607,31.54 L47.875,31.54 C48.704,31.54 49.375,30.87 49.375,30.04 L49.375,23.05 C49.375,19.73 47.085,16.2 42.841,16.2 Z" id="5F" fill="#FFFFFF"></path>
    </g>
</svg>